<svg width="476" height="112" viewBox="0 0 476 112" fill="none" xmlns="http://www.w3.org/2000/svg">
<g clip-path="url(#clip0_332_39555)">
<path d="M110.959 85.06V27.96H146.759V35.38H119.569V52.78H144.889V60.17H119.569V77.65H147.089V85.07H110.949L110.959 85.06ZM163.579 59.63V85.06H155.239V42.23H163.239V49.2H163.769C164.749 46.93 166.299 45.11 168.399 43.73C170.519 42.35 173.189 41.67 176.399 41.67C179.319 41.67 181.869 42.28 184.069 43.51C186.259 44.72 187.959 46.52 189.169 48.92C190.379 51.32 190.979 54.28 190.979 57.81V85.05H182.639V58.81C182.639 55.71 181.829 53.28 180.209 51.53C178.589 49.76 176.369 48.88 173.549 48.88C171.619 48.88 169.899 49.3 168.389 50.13C166.899 50.97 165.719 52.19 164.849 53.81C163.989 55.41 163.569 57.34 163.569 59.61L163.579 59.63ZM212.279 86.01C209.569 86.01 207.109 85.51 204.919 84.5C202.729 83.48 200.989 82 199.709 80.07C198.449 78.14 197.809 75.77 197.809 72.96C197.809 70.54 198.269 68.55 199.209 66.99C200.139 65.43 201.389 64.19 202.969 63.28C204.549 62.37 206.319 61.68 208.269 61.22C210.219 60.76 212.209 60.4 214.239 60.16C216.799 59.86 218.889 59.62 220.489 59.44C222.089 59.24 223.249 58.91 223.979 58.46C224.699 58.01 225.069 57.29 225.069 56.29V56.09C225.069 53.65 224.379 51.77 223.009 50.43C221.649 49.09 219.629 48.42 216.929 48.42C214.229 48.42 211.909 49.04 210.299 50.29C208.699 51.52 207.589 52.88 206.979 54.39L199.139 52.61C200.069 50.01 201.429 47.91 203.209 46.31C205.009 44.69 207.089 43.52 209.429 42.8C211.769 42.06 214.239 41.68 216.819 41.68C218.529 41.68 220.339 41.88 222.259 42.29C224.189 42.68 225.999 43.41 227.669 44.46C229.359 45.52 230.749 47.03 231.819 49C232.899 50.95 233.439 53.49 233.439 56.61V85.05H225.299V79.19H224.959C224.419 80.27 223.609 81.33 222.539 82.37C221.459 83.41 220.079 84.28 218.389 84.96C216.699 85.65 214.669 85.99 212.309 85.99L212.279 86.01ZM214.089 79.32C216.389 79.32 218.359 78.86 219.999 77.95C221.659 77.04 222.909 75.85 223.769 74.38C224.639 72.89 225.079 71.3 225.079 69.61V64.09C224.779 64.39 224.209 64.67 223.349 64.93C222.509 65.17 221.559 65.39 220.479 65.57C219.399 65.74 218.349 65.9 217.329 66.04C216.309 66.17 215.449 66.28 214.769 66.37C213.149 66.57 211.679 66.92 210.339 67.4C209.019 67.88 207.959 68.58 207.159 69.49C206.379 70.38 205.989 71.57 205.989 73.06C205.989 75.12 206.749 76.68 208.279 77.74C209.799 78.78 211.749 79.3 214.109 79.3L214.089 79.32ZM242.829 85.06V27.96H251.169V49.18H251.669C252.149 48.29 252.849 47.26 253.759 46.09C254.669 44.92 255.929 43.9 257.549 43.02C259.169 42.13 261.299 41.68 263.959 41.68C267.419 41.68 270.499 42.55 273.219 44.3C275.929 46.05 278.059 48.57 279.609 51.86C281.169 55.15 281.949 59.11 281.949 63.74C281.949 68.37 281.179 72.34 279.639 75.65C278.099 78.94 275.979 81.48 273.279 83.26C270.589 85.03 267.509 85.91 264.049 85.91C261.449 85.91 259.319 85.47 257.669 84.6C256.029 83.73 254.749 82.7 253.819 81.53C252.889 80.36 252.169 79.32 251.669 78.41H250.969V85.07H242.829V85.06ZM250.999 63.65C250.999 66.66 251.439 69.3 252.309 71.57C253.179 73.84 254.449 75.61 256.099 76.9C257.759 78.16 259.779 78.8 262.179 78.8C264.579 78.8 266.749 78.14 268.429 76.82C270.099 75.48 271.369 73.67 272.219 71.38C273.089 69.09 273.529 66.52 273.529 63.66C273.529 60.8 273.099 58.3 272.249 56.05C271.409 53.8 270.149 52.03 268.459 50.72C266.789 49.42 264.689 48.77 262.189 48.77C259.689 48.77 257.729 49.39 256.059 50.64C254.409 51.89 253.149 53.62 252.299 55.85C251.439 58.08 251.019 60.68 251.019 63.66L250.999 63.65ZM297.289 27.96V85.06H288.949V27.96H297.289ZM324.609 85.93C320.389 85.93 316.759 85.03 313.709 83.23C310.679 81.41 308.339 78.85 306.679 75.56C305.039 72.25 304.229 68.38 304.229 63.93C304.229 59.48 305.049 55.68 306.679 52.33C308.329 48.98 310.639 46.37 313.589 44.5C316.559 42.62 320.039 41.68 324.019 41.68C326.439 41.68 328.779 42.08 331.049 42.88C333.319 43.68 335.349 44.93 337.159 46.64C338.959 48.35 340.389 50.57 341.429 53.3C342.469 56.01 342.989 59.31 342.989 63.2V66.16H308.939V59.91H334.819C334.819 57.72 334.379 55.77 333.479 54.08C332.589 52.37 331.329 51.02 329.719 50.04C328.119 49.05 326.239 48.56 324.089 48.56C321.749 48.56 319.699 49.14 317.959 50.29C316.229 51.42 314.889 52.91 313.939 54.75C313.009 56.57 312.549 58.55 312.549 60.69V65.57C312.549 68.43 313.049 70.87 314.059 72.88C315.079 74.89 316.499 76.42 318.319 77.48C320.139 78.52 322.269 79.04 324.709 79.04C326.289 79.04 327.729 78.82 329.029 78.37C330.329 77.91 331.459 77.22 332.399 76.31C333.349 75.4 334.069 74.27 334.579 72.94L342.469 74.36C341.839 76.68 340.699 78.72 339.069 80.47C337.449 82.2 335.419 83.55 332.959 84.51C330.529 85.46 327.749 85.93 324.619 85.93H324.609Z" fill="#AB1F23"/>
<path d="M375.701 85.7399C372.191 85.7399 369.061 85.1399 366.331 83.9299C363.611 82.7299 361.471 81.0499 359.891 78.8999C358.311 76.7499 357.481 74.2699 357.381 71.4599H366.551C366.631 72.8099 367.081 73.9899 367.891 74.9999C368.701 75.9899 369.791 76.7599 371.141 77.3199C372.491 77.8799 374.001 78.1499 375.681 78.1499C377.471 78.1499 379.051 77.8399 380.441 77.2199C381.821 76.5899 382.911 75.7099 383.691 74.5899C384.471 73.4699 384.851 72.1699 384.841 70.7099C384.861 69.1999 384.471 67.8599 383.671 66.7099C382.871 65.5599 381.721 64.6499 380.211 63.9999C378.711 63.3499 376.911 63.0199 374.791 63.0199H370.371V56.0399H374.791C376.531 56.0399 378.051 55.7399 379.351 55.1399C380.671 54.5399 381.701 53.6899 382.451 52.5999C383.201 51.4899 383.561 50.2199 383.551 48.7699C383.571 47.3599 383.251 46.1299 382.601 45.0899C381.971 44.0299 381.061 43.2099 379.891 42.6299C378.741 42.0399 377.381 41.7499 375.821 41.7499C374.261 41.7499 372.881 42.0299 371.571 42.5799C370.271 43.1299 369.221 43.9199 368.421 44.9499C367.621 45.9599 367.201 47.1599 367.151 48.5599H358.441C358.511 45.7599 359.311 43.3099 360.861 41.1899C362.421 39.0599 364.501 37.3999 367.111 36.2099C369.711 35.0099 372.631 34.3999 375.871 34.3999C379.111 34.3999 382.101 35.0299 384.561 36.2799C387.031 37.5199 388.941 39.1799 390.291 41.2799C391.641 43.3799 392.321 45.6999 392.321 48.2299C392.341 51.0399 391.511 53.3999 389.831 55.3099C388.171 57.2099 385.991 58.4599 383.291 59.0399V59.4299C386.801 59.9199 389.501 61.2199 391.371 63.3299C393.261 65.4299 394.191 68.0399 394.181 71.1599C394.181 73.9599 393.381 76.4599 391.791 78.6699C390.211 80.8699 388.031 82.5899 385.251 83.8399C382.481 85.0899 379.311 85.7199 375.731 85.7199L375.701 85.7399ZM417.381 85.7399C414.991 85.7199 412.651 85.3099 410.381 84.4999C408.101 83.6699 406.051 82.3299 404.231 80.4699C402.411 78.5999 400.961 76.1199 399.891 73.0299C398.821 69.9199 398.291 66.0799 398.301 61.4899C398.301 57.2099 398.751 53.3999 399.671 50.0499C400.581 46.6999 401.891 43.8699 403.601 41.5599C405.311 39.2299 407.371 37.4599 409.771 36.2399C412.191 35.0199 414.901 34.4099 417.891 34.4099C421.031 34.4099 423.811 35.0299 426.231 36.2599C428.671 37.4999 430.641 39.1899 432.131 41.3299C433.631 43.4599 434.551 45.8699 434.911 48.5499H426.001C425.541 46.6299 424.611 45.0999 423.191 43.9599C421.791 42.8099 420.021 42.2299 417.871 42.2299C414.411 42.2299 411.741 43.7299 409.871 46.7399C408.021 49.7499 407.081 53.8799 407.061 59.1299H407.401C408.201 57.6999 409.231 56.4699 410.501 55.4499C411.771 54.4299 413.201 53.6399 414.791 53.0799C416.401 52.5099 418.101 52.2299 419.891 52.2299C422.821 52.2299 425.451 52.9299 427.771 54.3299C430.111 55.7299 431.971 57.6599 433.331 60.1099C434.701 62.5499 435.371 65.3499 435.361 68.4999C435.381 71.7899 434.631 74.7399 433.121 77.3599C431.611 79.9599 429.501 82.0099 426.801 83.5099C424.101 85.0099 420.951 85.7499 417.361 85.7299L417.381 85.7399ZM417.331 78.4199C419.101 78.4199 420.691 77.9899 422.091 77.1299C423.491 76.2699 424.591 75.1099 425.411 73.6399C426.221 72.1799 426.621 70.5299 426.611 68.7099C426.631 66.9199 426.241 65.2999 425.441 63.8499C424.661 62.3999 423.581 61.2599 422.191 60.4099C420.811 59.5599 419.231 59.1399 417.461 59.1399C416.141 59.1399 414.911 59.3899 413.781 59.8999C412.641 60.3999 411.651 61.0999 410.801 61.9999C409.951 62.8799 409.291 63.8999 408.801 65.0699C408.331 66.2199 408.081 67.4599 408.071 68.7799C408.081 70.5199 408.491 72.1199 409.291 73.5899C410.091 75.0499 411.191 76.2199 412.581 77.0999C413.981 77.9799 415.561 78.4199 417.341 78.4199H417.331ZM457.571 85.7399C454.321 85.7399 451.401 85.1299 448.831 83.9099C446.261 82.6699 444.221 80.9799 442.711 78.8399C441.211 76.6899 440.421 74.2399 440.321 71.4699H449.101C449.261 73.5199 450.151 75.1899 451.761 76.4999C453.371 77.7799 455.311 78.4299 457.571 78.4299C459.341 78.4299 460.921 78.0199 462.301 77.2099C463.681 76.3999 464.771 75.2699 465.571 73.8199C466.371 72.3699 466.761 70.7199 466.741 68.8699C466.761 66.9799 466.361 65.3099 465.541 63.8399C464.731 62.3799 463.611 61.2299 462.201 60.3999C460.791 59.5499 459.161 59.1299 457.321 59.1299C455.821 59.1099 454.351 59.3899 452.911 59.9599C451.461 60.5299 450.321 61.2799 449.471 62.1999L441.301 60.8599L443.911 35.0999H472.891V42.6599H451.401L449.961 55.9099H450.251C451.181 54.8199 452.491 53.9199 454.181 53.1999C455.871 52.4699 457.731 52.0999 459.741 52.0999C462.761 52.0999 465.471 52.8199 467.841 54.2499C470.211 55.6699 472.081 57.6199 473.451 60.1099C474.821 62.5999 475.501 65.4399 475.501 68.6499C475.501 71.8599 474.741 74.8999 473.211 77.4799C471.701 80.0499 469.591 82.0699 466.891 83.5599C464.211 85.0199 461.101 85.7599 457.571 85.7599V85.7399Z" fill="url(#paint0_linear_332_39555)"/>
<path d="M67.071 44.1699H73.611C78.1287 44.1699 81.791 47.8322 81.791 52.3499V58.8899C81.791 63.4076 78.1287 67.0699 73.611 67.0699H67.071C62.5533 67.0699 58.891 63.4076 58.891 58.8899V52.3499C58.891 47.8322 62.5533 44.1699 67.071 44.1699Z" fill="#AB1F24"/>
<path d="M8.18039 44.1699H14.7204C19.2381 44.1699 22.9004 47.8322 22.9004 52.3499V58.8899C22.9004 63.4076 19.2381 67.0699 14.7204 67.0699H8.18039C3.6627 67.0699 0.000389099 63.4076 0.000389099 58.8899V52.3499C0.000389099 47.8322 3.6627 44.1699 8.18039 44.1699Z" fill="#E22727"/>
<path d="M39.2605 21.27H45.8005C50.3182 21.27 53.9805 24.9323 53.9805 29.45V35.99C53.9805 40.5077 50.3182 44.17 45.8005 44.17H39.2605C34.7428 44.17 31.0805 40.5077 31.0805 35.99V29.45C31.0805 24.9323 34.7428 21.27 39.2605 21.27Z" fill="#D22327"/>
<path d="M39.2605 67.0698H45.8005C50.3182 67.0698 53.9805 70.7321 53.9805 75.2498V81.7898C53.9805 86.3075 50.3182 89.9698 45.8005 89.9698H39.2605C34.7428 89.9698 31.0805 86.3075 31.0805 81.7898V75.2498C31.0805 70.7321 34.7428 67.0698 39.2605 67.0698Z" fill="#D22327"/>
<path d="M8.18039 0H14.7204C19.2381 0 22.9004 3.66231 22.9004 8.18V14.72C22.9004 19.2377 19.2381 22.9 14.7204 22.9H8.18039C3.6627 22.9 0.000389099 19.2377 0.000389099 14.72V8.18C0.000389099 3.66231 3.6627 0 8.18039 0Z" fill="#E22727"/>
<path d="M8.18039 88.3301H14.7204C19.2381 88.3301 22.9004 91.9924 22.9004 96.5101V103.05C22.9004 107.568 19.2381 111.23 14.7204 111.23H8.18039C3.6627 111.23 0.000389099 107.568 0.000389099 103.05V96.5101C0.000389099 91.9924 3.6627 88.3301 8.18039 88.3301Z" fill="#E22727"/>
</g>
<defs>
<linearGradient id="paint0_linear_332_39555" x1="403.131" y1="35.1399" x2="425.881" y2="72.7199" gradientUnits="userSpaceOnUse">
<stop stop-color="#010101"/>
<stop offset="1" stop-color="#202020"/>
</linearGradient>
<clipPath id="clip0_332_39555">
<rect width="475.51" height="111.23" fill="white"/>
</clipPath>
</defs>
</svg>
