<svg width="476" height="112" viewBox="0 0 476 112" fill="none" xmlns="http://www.w3.org/2000/svg">
<g clip-path="url(#clip0_445_39764)">
<mask id="mask0_445_39764" style="mask-type:luminance" maskUnits="userSpaceOnUse" x="0" y="0" width="476" height="112">
<path d="M475.51 0H0V111.23H475.51V0Z" fill="white"/>
</mask>
<g mask="url(#mask0_445_39764)">
<path d="M110.958 85.06V27.96H146.758V35.38H119.568V52.78H144.888V60.17H119.568V77.65H147.088V85.07H110.948L110.958 85.06ZM163.578 59.63V85.06H155.238V42.23H163.238V49.2H163.768C164.748 46.93 166.298 45.11 168.398 43.73C170.518 42.35 173.188 41.67 176.398 41.67C179.318 41.67 181.868 42.28 184.068 43.51C186.258 44.72 187.958 46.52 189.168 48.92C190.378 51.32 190.978 54.28 190.978 57.81V85.05H182.638V58.81C182.638 55.71 181.828 53.28 180.208 51.53C178.588 49.76 176.368 48.88 173.548 48.88C171.618 48.88 169.898 49.3 168.388 50.13C166.898 50.97 165.718 52.19 164.848 53.81C163.988 55.41 163.568 57.34 163.568 59.61L163.578 59.63ZM212.278 86.01C209.568 86.01 207.108 85.51 204.918 84.5C202.728 83.48 200.988 82 199.708 80.07C198.448 78.14 197.808 75.77 197.808 72.96C197.808 70.54 198.268 68.55 199.208 66.99C200.138 65.43 201.388 64.19 202.968 63.28C204.548 62.37 206.318 61.68 208.268 61.22C210.218 60.76 212.208 60.4 214.238 60.16C216.798 59.86 218.888 59.62 220.488 59.44C222.088 59.24 223.248 58.91 223.978 58.46C224.698 58.01 225.068 57.29 225.068 56.29V56.09C225.068 53.65 224.378 51.77 223.008 50.43C221.648 49.09 219.628 48.42 216.928 48.42C214.228 48.42 211.908 49.04 210.298 50.29C208.698 51.52 207.588 52.88 206.978 54.39L199.138 52.61C200.068 50.01 201.428 47.91 203.208 46.31C205.008 44.69 207.088 43.52 209.428 42.8C211.768 42.06 214.238 41.68 216.818 41.68C218.528 41.68 220.338 41.88 222.258 42.29C224.188 42.68 225.998 43.41 227.668 44.46C229.358 45.52 230.748 47.03 231.818 49C232.898 50.95 233.438 53.49 233.438 56.61V85.05H225.298V79.19H224.958C224.418 80.27 223.608 81.33 222.538 82.37C221.458 83.41 220.078 84.28 218.388 84.96C216.698 85.65 214.668 85.99 212.308 85.99L212.278 86.01ZM214.088 79.32C216.388 79.32 218.358 78.86 219.998 77.95C221.658 77.04 222.908 75.85 223.768 74.38C224.638 72.89 225.078 71.3 225.078 69.61V64.09C224.778 64.39 224.208 64.67 223.348 64.93C222.508 65.17 221.558 65.39 220.478 65.57C219.398 65.74 218.348 65.9 217.328 66.04C216.308 66.17 215.448 66.28 214.768 66.37C213.148 66.57 211.678 66.92 210.338 67.4C209.018 67.88 207.958 68.58 207.158 69.49C206.378 70.38 205.988 71.57 205.988 73.06C205.988 75.12 206.748 76.68 208.278 77.74C209.798 78.78 211.748 79.3 214.108 79.3L214.088 79.32ZM242.828 85.06V27.96H251.168V49.18H251.668C252.148 48.29 252.848 47.26 253.758 46.09C254.668 44.92 255.928 43.9 257.548 43.02C259.168 42.13 261.298 41.68 263.958 41.68C267.418 41.68 270.498 42.55 273.218 44.3C275.928 46.05 278.058 48.57 279.608 51.86C281.168 55.15 281.948 59.11 281.948 63.74C281.948 68.37 281.178 72.34 279.638 75.65C278.098 78.94 275.978 81.48 273.278 83.26C270.588 85.03 267.508 85.91 264.048 85.91C261.448 85.91 259.318 85.47 257.668 84.6C256.028 83.73 254.748 82.7 253.818 81.53C252.888 80.36 252.168 79.32 251.668 78.41H250.968V85.07H242.828V85.06ZM250.998 63.65C250.998 66.66 251.438 69.3 252.308 71.57C253.178 73.84 254.448 75.61 256.098 76.9C257.758 78.16 259.778 78.8 262.178 78.8C264.578 78.8 266.748 78.14 268.428 76.82C270.098 75.48 271.368 73.67 272.218 71.38C273.088 69.09 273.528 66.52 273.528 63.66C273.528 60.8 273.098 58.3 272.248 56.05C271.408 53.8 270.148 52.03 268.458 50.72C266.788 49.42 264.688 48.77 262.188 48.77C259.688 48.77 257.728 49.39 256.058 50.64C254.408 51.89 253.148 53.62 252.298 55.85C251.438 58.08 251.018 60.68 251.018 63.66L250.998 63.65ZM297.288 27.96V85.06H288.948V27.96H297.288ZM324.608 85.93C320.388 85.93 316.758 85.03 313.708 83.23C310.678 81.41 308.338 78.85 306.678 75.56C305.038 72.25 304.228 68.38 304.228 63.93C304.228 59.48 305.048 55.68 306.678 52.33C308.328 48.98 310.638 46.37 313.588 44.5C316.558 42.62 320.038 41.68 324.018 41.68C326.438 41.68 328.778 42.08 331.048 42.88C333.318 43.68 335.348 44.93 337.158 46.64C338.958 48.35 340.388 50.57 341.428 53.3C342.468 56.01 342.988 59.31 342.988 63.2V66.16H308.938V59.91H334.818C334.818 57.72 334.378 55.77 333.478 54.08C332.588 52.37 331.328 51.02 329.718 50.04C328.118 49.05 326.238 48.56 324.088 48.56C321.748 48.56 319.698 49.14 317.958 50.29C316.228 51.42 314.888 52.91 313.938 54.75C313.008 56.57 312.548 58.55 312.548 60.69V65.57C312.548 68.43 313.048 70.87 314.058 72.88C315.078 74.89 316.498 76.42 318.318 77.48C320.138 78.52 322.268 79.04 324.708 79.04C326.288 79.04 327.728 78.82 329.028 78.37C330.328 77.91 331.458 77.22 332.398 76.31C333.348 75.4 334.068 74.27 334.578 72.94L342.468 74.36C341.838 76.68 340.698 78.72 339.068 80.47C337.448 82.2 335.418 83.55 332.958 84.51C330.528 85.46 327.748 85.93 324.618 85.93H324.608Z" fill="white"/>
<path d="M375.701 85.7399C372.191 85.7399 369.061 85.1399 366.331 83.9299C363.611 82.7299 361.471 81.0499 359.891 78.8999C358.311 76.7499 357.481 74.2699 357.381 71.4599H366.551C366.631 72.8099 367.081 73.9899 367.891 74.9999C368.701 75.9899 369.791 76.7599 371.141 77.3199C372.491 77.8799 374.001 78.1499 375.681 78.1499C377.471 78.1499 379.051 77.8399 380.441 77.2199C381.821 76.5899 382.911 75.7099 383.691 74.5899C384.471 73.4699 384.851 72.1699 384.841 70.7099C384.861 69.1999 384.471 67.8599 383.671 66.7099C382.871 65.5599 381.721 64.6499 380.211 63.9999C378.711 63.3499 376.911 63.0199 374.791 63.0199H370.371V56.0399H374.791C376.531 56.0399 378.051 55.7399 379.351 55.1399C380.671 54.5399 381.701 53.6899 382.451 52.5999C383.201 51.4899 383.561 50.2199 383.551 48.7699C383.571 47.3599 383.251 46.1299 382.601 45.0899C381.971 44.0299 381.061 43.2099 379.891 42.6299C378.741 42.0399 377.381 41.7499 375.821 41.7499C374.261 41.7499 372.881 42.0299 371.571 42.5799C370.271 43.1299 369.221 43.9199 368.421 44.9499C367.621 45.9599 367.201 47.1599 367.151 48.5599H358.441C358.511 45.7599 359.311 43.3099 360.861 41.1899C362.421 39.0599 364.501 37.3999 367.111 36.2099C369.711 35.0099 372.631 34.3999 375.871 34.3999C379.111 34.3999 382.101 35.0299 384.561 36.2799C387.031 37.5199 388.941 39.1799 390.291 41.2799C391.641 43.3799 392.321 45.6999 392.321 48.2299C392.341 51.0399 391.511 53.3999 389.831 55.3099C388.171 57.2099 385.991 58.4599 383.291 59.0399V59.4299C386.801 59.9199 389.501 61.2199 391.371 63.3299C393.261 65.4299 394.191 68.0399 394.181 71.1599C394.181 73.9599 393.381 76.4599 391.791 78.6699C390.211 80.8699 388.031 82.5899 385.251 83.8399C382.481 85.0899 379.311 85.7199 375.731 85.7199L375.701 85.7399ZM417.381 85.7399C414.991 85.7199 412.651 85.3099 410.381 84.4999C408.101 83.6699 406.051 82.3299 404.231 80.4699C402.411 78.5999 400.961 76.1199 399.891 73.0299C398.821 69.9199 398.291 66.0799 398.301 61.4899C398.301 57.2099 398.751 53.3999 399.671 50.0499C400.581 46.6999 401.891 43.8699 403.601 41.5599C405.311 39.2299 407.371 37.4599 409.771 36.2399C412.191 35.0199 414.901 34.4099 417.891 34.4099C421.031 34.4099 423.811 35.0299 426.231 36.2599C428.671 37.4999 430.641 39.1899 432.131 41.3299C433.631 43.4599 434.551 45.8699 434.911 48.5499H426.001C425.541 46.6299 424.611 45.0999 423.191 43.9599C421.791 42.8099 420.021 42.2299 417.871 42.2299C414.411 42.2299 411.741 43.7299 409.871 46.7399C408.021 49.7499 407.081 53.8799 407.061 59.1299H407.401C408.201 57.6999 409.231 56.4699 410.501 55.4499C411.771 54.4299 413.201 53.6399 414.791 53.0799C416.401 52.5099 418.101 52.2299 419.891 52.2299C422.821 52.2299 425.451 52.9299 427.771 54.3299C430.111 55.7299 431.971 57.6599 433.331 60.1099C434.701 62.5499 435.371 65.3499 435.361 68.4999C435.381 71.7899 434.631 74.7399 433.121 77.3599C431.611 79.9599 429.501 82.0099 426.801 83.5099C424.101 85.0099 420.951 85.7499 417.361 85.7299L417.381 85.7399ZM417.331 78.4199C419.101 78.4199 420.691 77.9899 422.091 77.1299C423.491 76.2699 424.591 75.1099 425.411 73.6399C426.221 72.1799 426.621 70.5299 426.611 68.7099C426.631 66.9199 426.241 65.2999 425.441 63.8499C424.661 62.3999 423.581 61.2599 422.191 60.4099C420.811 59.5599 419.231 59.1399 417.461 59.1399C416.141 59.1399 414.911 59.3899 413.781 59.8999C412.641 60.3999 411.651 61.0999 410.801 61.9999C409.951 62.8799 409.291 63.8999 408.801 65.0699C408.331 66.2199 408.081 67.4599 408.071 68.7799C408.081 70.5199 408.491 72.1199 409.291 73.5899C410.091 75.0499 411.191 76.2199 412.581 77.0999C413.981 77.9799 415.561 78.4199 417.341 78.4199H417.331ZM457.571 85.7399C454.321 85.7399 451.401 85.1299 448.831 83.9099C446.261 82.6699 444.221 80.9799 442.711 78.8399C441.211 76.6899 440.421 74.2399 440.321 71.4699H449.101C449.261 73.5199 450.151 75.1899 451.761 76.4999C453.371 77.7799 455.311 78.4299 457.571 78.4299C459.341 78.4299 460.921 78.0199 462.301 77.2099C463.681 76.3999 464.771 75.2699 465.571 73.8199C466.371 72.3699 466.761 70.7199 466.741 68.8699C466.761 66.9799 466.361 65.3099 465.541 63.8399C464.731 62.3799 463.611 61.2299 462.201 60.3999C460.791 59.5499 459.161 59.1299 457.321 59.1299C455.821 59.1099 454.351 59.3899 452.911 59.9599C451.461 60.5299 450.321 61.2799 449.471 62.1999L441.301 60.8599L443.911 35.0999H472.891V42.6599H451.401L449.961 55.9099H450.251C451.181 54.8199 452.491 53.9199 454.181 53.1999C455.871 52.4699 457.731 52.0999 459.741 52.0999C462.761 52.0999 465.471 52.8199 467.841 54.2499C470.211 55.6699 472.081 57.6199 473.451 60.1099C474.821 62.5999 475.501 65.4399 475.501 68.6499C475.501 71.8599 474.741 74.8999 473.211 77.4799C471.701 80.0499 469.591 82.0699 466.891 83.5599C464.211 85.0199 461.101 85.7599 457.571 85.7599V85.7399Z" fill="white"/>
<path d="M67.0706 44.1699H73.6106C78.1283 44.1699 81.7906 47.8322 81.7906 52.3499V58.8899C81.7906 63.4076 78.1283 67.0699 73.6106 67.0699H67.0706C62.5529 67.0699 58.8906 63.4076 58.8906 58.8899V52.3499C58.8906 47.8322 62.5529 44.1699 67.0706 44.1699Z" fill="white"/>
<path d="M8.18 44.1699H14.72C19.2377 44.1699 22.9 47.8322 22.9 52.3499V58.8899C22.9 63.4076 19.2377 67.0699 14.72 67.0699H8.18C3.66231 67.0699 0 63.4076 0 58.8899V52.3499C0 47.8322 3.66231 44.1699 8.18 44.1699Z" fill="white"/>
<path d="M39.2601 21.27H45.8001C50.3178 21.27 53.9801 24.9323 53.9801 29.45V35.99C53.9801 40.5077 50.3178 44.17 45.8001 44.17H39.2601C34.7424 44.17 31.0801 40.5077 31.0801 35.99V29.45C31.0801 24.9323 34.7424 21.27 39.2601 21.27Z" fill="white"/>
<path d="M39.2601 67.0698H45.8001C50.3178 67.0698 53.9801 70.7321 53.9801 75.2498V81.7898C53.9801 86.3075 50.3178 89.9698 45.8001 89.9698H39.2601C34.7424 89.9698 31.0801 86.3075 31.0801 81.7898V75.2498C31.0801 70.7321 34.7424 67.0698 39.2601 67.0698Z" fill="white"/>
<path d="M8.18 0H14.72C19.2377 0 22.9 3.66231 22.9 8.18V14.72C22.9 19.2377 19.2377 22.9 14.72 22.9H8.18C3.66231 22.9 0 19.2377 0 14.72V8.18C0 3.66231 3.66231 0 8.18 0Z" fill="white"/>
<path d="M8.18 88.3301H14.72C19.2377 88.3301 22.9 91.9924 22.9 96.5101V103.05C22.9 107.568 19.2377 111.23 14.72 111.23H8.18C3.66231 111.23 0 107.568 0 103.05V96.5101C0 91.9924 3.66231 88.3301 8.18 88.3301Z" fill="white"/>
</g>
</g>
<defs>
<clipPath id="clip0_445_39764">
<rect width="476" height="112" fill="white"/>
</clipPath>
</defs>
</svg>
