<?xml version="1.0" standalone="no"?>
<!DOCTYPE svg PUBLIC "-//W3C//DTD SVG 20010904//EN"
 "http://www.w3.org/TR/2001/REC-SVG-20010904/DTD/svg10.dtd">
<svg version="1.0" xmlns="http://www.w3.org/2000/svg"
 width="700.000000pt" height="700.000000pt" viewBox="0 0 700.000000 700.000000"
 preserveAspectRatio="xMidYMid meet">
<metadata>
Created by potrace 1.14, written by Peter Selinger 2001-2017
</metadata>
<g transform="translate(0.000000,700.000000) scale(0.100000,-0.100000)"
fill="#000000" stroke="none">
<path d="M2132 6985 c-173 -41 -327 -196 -368 -371 -9 -42 -13 -135 -13 -324
0 -251 1 -269 24 -339 49 -153 158 -265 315 -324 50 -19 80 -21 335 -24 209
-2 295 1 337 11 165 39 304 164 361 324 18 50 21 88 25 320 2 172 0 287 -8
330 -34 197 -190 358 -390 401 -67 15 -553 12 -618 -4z"/>
<path d="M4153 5690 c-61 -13 -161 -62 -212 -107 -81 -69 -144 -171 -179 -288
-3 -11 -7 -160 -9 -330 -3 -301 -2 -313 20 -385 56 -182 185 -315 352 -361 91
-25 528 -28 633 -4 122 28 227 104 302 218 77 118 83 153 88 482 4 325 -3 388
-59 503 -60 125 -207 243 -338 271 -55 12 -540 12 -598 1z"/>
<path d="M2133 4186 c-179 -43 -334 -202 -371 -381 -17 -79 -14 -559 3 -625
49 -185 209 -337 390 -370 85 -15 538 -12 608 4 31 7 82 26 114 42 75 37 182
143 216 214 51 107 57 153 57 430 -1 140 -6 278 -12 305 -37 181 -193 339
-378 381 -74 18 -554 17 -627 0z"/>
<path d="M5835 4186 c-135 -34 -273 -142 -328 -256 -51 -106 -57 -153 -57
-430 0 -279 7 -329 57 -430 38 -75 143 -179 218 -215 105 -51 144 -55 450 -52
257 3 285 5 337 24 155 58 264 172 314 328 21 65 23 90 24 331 0 241 -6 322
-28 379 -65 159 -188 273 -345 319 -64 19 -568 21 -642 2z"/>
<path d="M4130 2784 c-130 -35 -254 -138 -317 -264 -57 -114 -61 -146 -62
-466 0 -264 2 -299 20 -365 26 -95 60 -156 127 -229 45 -50 141 -119 177 -127
6 -1 35 -9 65 -17 42 -12 112 -15 316 -15 227 0 269 2 323 19 176 53 313 203
355 389 21 92 22 578 1 676 -40 187 -178 342 -354 395 -58 17 -95 19 -331 19
-198 -1 -279 -4 -320 -15z"/>
<path d="M2133 1386 c-175 -43 -321 -189 -368 -367 -11 -40 -14 -122 -14 -324
0 -259 1 -273 25 -347 53 -167 189 -291 364 -334 67 -16 540 -18 615 -2 133
28 279 139 337 258 53 106 58 152 58 437 -1 223 -4 272 -19 325 -28 93 -59
146 -131 219 -68 69 -139 110 -230 134 -71 19 -562 19 -637 1z"/>
</g>
</svg>
